<svg width="33" height="32" viewBox="0 0 33 32" fill="none" xmlns="http://www.w3.org/2000/svg">
<path d="M23.1177 0.213372C23.0505 0.13831 20.6308 0.243002 18.5251 2.52844C16.4194 4.8119 16.7434 7.43117 16.7908 7.49833C16.8382 7.56549 19.7932 7.67018 21.6797 5.01338C23.5661 2.35659 23.1849 0.290409 23.1177 0.213372V0.213372ZM29.6639 23.3897C29.5691 23.2001 25.0713 20.9522 25.49 16.6302C25.9088 12.3062 28.7987 11.1211 28.8441 10.9927C28.8896 10.8643 27.6649 9.43216 26.3671 8.70722C25.4142 8.19611 24.3596 7.90328 23.2797 7.84993C23.0663 7.84401 22.3256 7.66228 20.8026 8.07907C19.7992 8.35364 17.5374 9.24253 16.9152 9.27808C16.291 9.31364 14.4342 8.24697 12.4372 7.9645C11.1591 7.71759 9.80408 8.22327 8.83421 8.6124C7.8663 8.99957 6.02531 10.1018 4.73741 13.0312C3.4495 15.9586 4.12308 20.5966 4.60506 22.0386C5.08704 23.4786 5.83963 25.8391 7.11963 27.5616C8.25741 29.5053 9.76655 30.8544 10.3967 31.3127C11.0268 31.771 12.8046 32.0752 14.0372 31.445C15.0288 30.8367 16.8184 30.487 17.5256 30.5127C18.2308 30.5384 19.6214 30.8169 21.0456 31.5774C22.1735 31.9665 23.2402 31.8046 24.3088 31.37C25.3775 30.9334 26.9241 29.2781 28.7296 25.9221C29.415 24.3616 29.7271 23.5181 29.6639 23.3897V23.3897Z" fill="black"/>
<path d="M23.1177 0.213372C23.0505 0.13831 20.6308 0.243002 18.5251 2.52844C16.4194 4.8119 16.7434 7.43117 16.7908 7.49833C16.8382 7.56549 19.7932 7.67018 21.6797 5.01338C23.5661 2.35659 23.1849 0.290409 23.1177 0.213372V0.213372ZM29.6639 23.3897C29.5691 23.2001 25.0713 20.9522 25.49 16.6302C25.9088 12.3062 28.7987 11.1211 28.8441 10.9927C28.8896 10.8643 27.6649 9.43216 26.3671 8.70722C25.4142 8.19611 24.3596 7.90328 23.2797 7.84993C23.0663 7.84401 22.3256 7.66228 20.8026 8.07907C19.7992 8.35364 17.5374 9.24253 16.9152 9.27808C16.291 9.31364 14.4342 8.24697 12.4372 7.9645C11.1591 7.71759 9.80408 8.22327 8.83421 8.6124C7.8663 8.99957 6.02531 10.1018 4.73741 13.0312C3.4495 15.9586 4.12308 20.5966 4.60506 22.0386C5.08704 23.4786 5.83963 25.8391 7.11963 27.5616C8.25741 29.5053 9.76655 30.8544 10.3967 31.3127C11.0268 31.771 12.8046 32.0752 14.0372 31.445C15.0288 30.8367 16.8184 30.487 17.5256 30.5127C18.2308 30.5384 19.6214 30.8169 21.0456 31.5774C22.1735 31.9665 23.2402 31.8046 24.3088 31.37C25.3775 30.9334 26.9241 29.2781 28.7296 25.9221C29.415 24.3616 29.7271 23.5181 29.6639 23.3897V23.3897Z" fill="black"/>
</svg>
