<svg width="33" height="32" viewBox="0 0 33 32" fill="none" xmlns="http://www.w3.org/2000/svg">
<g clip-path="url(#clip0_2_10183)">
<path fill-rule="evenodd" clip-rule="evenodd" d="M16.5 0C25.3365 0 32.5 7.16346 32.5 16C32.5 24.8365 25.3365 32 16.5 32C7.66343 32 0.499969 24.8365 0.499969 16C0.499969 7.16346 7.66343 0 16.5 0Z" fill="#0075FF"/>
<path d="M18.5789 31.8657V19.507H22.0631L22.5249 15.1573H18.5789L18.5848 12.9801C18.5848 11.8456 18.6925 11.238 20.3221 11.238H22.5005V6.88762H19.0155C14.8295 6.88762 13.3564 8.99757 13.3564 12.5464V15.1577H10.7469V19.5077H13.3564V31.6905C14.373 31.893 15.4239 32 16.5 32C17.1951 32 17.8896 31.9552 18.5789 31.8657V31.8657Z" fill="white"/>
</g>
<defs>
<clipPath id="clip0_2_10183">
<rect width="32" height="32" fill="white" transform="translate(0.499969)"/>
</clipPath>
</defs>
</svg>
