<svg width="33" height="32" viewBox="0 0 33 32" fill="none" xmlns="http://www.w3.org/2000/svg">
<path d="M23.1177 0.21338C23.0506 0.138318 20.6308 0.243009 18.5251 2.52845C16.4194 4.81191 16.7434 7.43117 16.7908 7.49833C16.8382 7.5655 19.7933 7.67019 21.6797 5.01339C23.5661 2.35659 23.1849 0.290417 23.1177 0.21338V0.21338ZM29.6639 23.3897C29.5691 23.2001 25.0713 20.9522 25.4901 16.6302C25.9088 12.3062 28.7987 11.1211 28.8441 10.9927C28.8896 10.8643 27.6649 9.43217 26.3671 8.70723C25.4142 8.19612 24.3597 7.90329 23.2797 7.84994C23.0664 7.84401 22.3256 7.66229 20.8026 8.07908C19.7992 8.35364 17.5375 9.24254 16.9152 9.27809C16.291 9.31365 14.4342 8.24698 12.4372 7.96451C11.1592 7.71759 9.8041 8.22328 8.83422 8.61241C7.86632 8.99957 6.02533 10.1018 4.73742 13.0312C3.44952 15.9586 4.1231 20.5966 4.60507 22.0386C5.08705 23.4786 5.83965 25.8391 7.11965 27.5616C8.25743 29.5053 9.76657 30.8544 10.3967 31.3127C11.0268 31.771 12.8046 32.0752 14.0372 31.4451C15.0288 30.8367 16.8184 30.487 17.5256 30.5127C18.2308 30.5384 19.6214 30.8169 21.0456 31.5774C22.1735 31.9665 23.2402 31.8046 24.3088 31.37C25.3775 30.9334 26.9241 29.2781 28.7296 25.9221C29.415 24.3616 29.7271 23.5181 29.6639 23.3897V23.3897Z" fill="black"/>
<path d="M23.1177 0.21338C23.0506 0.138318 20.6308 0.243009 18.5251 2.52845C16.4194 4.81191 16.7434 7.43117 16.7908 7.49833C16.8382 7.5655 19.7933 7.67019 21.6797 5.01339C23.5661 2.35659 23.1849 0.290417 23.1177 0.21338V0.21338ZM29.6639 23.3897C29.5691 23.2001 25.0713 20.9522 25.4901 16.6302C25.9088 12.3062 28.7987 11.1211 28.8441 10.9927C28.8896 10.8643 27.6649 9.43217 26.3671 8.70723C25.4142 8.19612 24.3597 7.90329 23.2797 7.84994C23.0664 7.84401 22.3256 7.66229 20.8026 8.07908C19.7992 8.35364 17.5375 9.24254 16.9152 9.27809C16.291 9.31365 14.4342 8.24698 12.4372 7.96451C11.1592 7.71759 9.8041 8.22328 8.83422 8.61241C7.86632 8.99957 6.02533 10.1018 4.73742 13.0312C3.44952 15.9586 4.1231 20.5966 4.60507 22.0386C5.08705 23.4786 5.83965 25.8391 7.11965 27.5616C8.25743 29.5053 9.76657 30.8544 10.3967 31.3127C11.0268 31.771 12.8046 32.0752 14.0372 31.4451C15.0288 30.8367 16.8184 30.487 17.5256 30.5127C18.2308 30.5384 19.6214 30.8169 21.0456 31.5774C22.1735 31.9665 23.2402 31.8046 24.3088 31.37C25.3775 30.9334 26.9241 29.2781 28.7296 25.9221C29.415 24.3616 29.7271 23.5181 29.6639 23.3897V23.3897Z" fill="black"/>
</svg>
