<svg width="16" height="16" viewBox="0 0 16 16" fill="none" xmlns="http://www.w3.org/2000/svg">
<path d="M8 0.0570374C5.81013 0.0570374 4.02852 1.83864 4.02852 4.02852V6.41141H3.23422C2.35811 6.41141 1.64563 7.12389 1.64563 8V14.3544C1.64563 15.2305 2.35811 15.943 3.23422 15.943H12.7658C13.6419 15.943 14.3544 15.2305 14.3544 14.3544V8C14.3544 7.12389 13.6419 6.41141 12.7658 6.41141H11.9715V4.02852C11.9715 1.83864 10.1899 0.0570374 8 0.0570374ZM12.7658 8L12.7674 14.3544H3.23422V8H12.7658ZM5.61711 6.41141V4.02852C5.61711 2.71475 6.68623 1.64563 8 1.64563C9.31377 1.64563 10.3829 2.71475 10.3829 4.02852V6.41141H5.61711Z" fill="#7E7E7E" fill-opacity="0.7"/>
</svg>
