<svg width="16" height="17" viewBox="0 0 16 17" fill="none" xmlns="http://www.w3.org/2000/svg">
<path d="M14.9648 13.5573C14.5856 12.6591 14.0354 11.8433 13.3447 11.1553C12.6561 10.4652 11.8404 9.91508 10.9427 9.53518C10.9347 9.53116 10.9266 9.52915 10.9186 9.52513C12.1708 8.6206 12.9849 7.14724 12.9849 5.48492C12.9849 2.73116 10.7537 0.5 7.99998 0.5C5.24621 0.5 3.01505 2.73116 3.01505 5.48492C3.01505 7.14724 3.82912 8.6206 5.08138 9.52714C5.07334 9.53116 5.0653 9.53317 5.05726 9.53719C4.15676 9.91708 3.34872 10.4618 2.65525 11.1573C1.96522 11.8459 1.41506 12.6615 1.03515 13.5593C0.661932 14.4382 0.460645 15.3805 0.442189 16.3352C0.441652 16.3566 0.445415 16.378 0.453256 16.3979C0.461097 16.4179 0.472856 16.4361 0.487842 16.4515C0.502828 16.4668 0.520737 16.4791 0.540513 16.4874C0.560289 16.4957 0.581533 16.5 0.602993 16.5H1.80902C1.89747 16.5 1.96782 16.4296 1.96983 16.3432C2.01003 14.7915 2.63314 13.3382 3.73465 12.2367C4.87435 11.097 6.38792 10.4698 7.99998 10.4698C9.61204 10.4698 11.1256 11.097 12.2653 12.2367C13.3668 13.3382 13.9899 14.7915 14.0301 16.3432C14.0321 16.4317 14.1025 16.5 14.1909 16.5H15.397C15.4184 16.5 15.4397 16.4957 15.4594 16.4874C15.4792 16.4791 15.4971 16.4668 15.5121 16.4515C15.5271 16.4361 15.5389 16.4179 15.5467 16.3979C15.5545 16.378 15.5583 16.3566 15.5578 16.3352C15.5377 15.3744 15.3387 14.4397 14.9648 13.5573V13.5573ZM7.99998 8.94221C7.07736 8.94221 6.20902 8.58241 5.55576 7.92915C4.90249 7.27588 4.54269 6.40754 4.54269 5.48492C4.54269 4.56231 4.90249 3.69397 5.55576 3.0407C6.20902 2.38744 7.07736 2.02764 7.99998 2.02764C8.92259 2.02764 9.79093 2.38744 10.4442 3.0407C11.0975 3.69397 11.4573 4.56231 11.4573 5.48492C11.4573 6.40754 11.0975 7.27588 10.4442 7.92915C9.79093 8.58241 8.92259 8.94221 7.99998 8.94221Z" fill="#7E7E7E" fill-opacity="0.7"/>
</svg>
