<svg width="16" height="17" viewBox="0 0 16 17" fill="none" xmlns="http://www.w3.org/2000/svg">
<path d="M14.9648 13.5573C14.5857 12.6591 14.0354 11.8433 13.3447 11.1553C12.6561 10.4652 11.8405 9.91508 10.9427 9.53518C10.9347 9.53116 10.9266 9.52915 10.9186 9.52513C12.1709 8.6206 12.9849 7.14724 12.9849 5.48492C12.9849 2.73116 10.7538 0.5 8 0.5C5.24623 0.5 3.01508 2.73116 3.01508 5.48492C3.01508 7.14724 3.82915 8.6206 5.08141 9.52714C5.07337 9.53116 5.06533 9.53317 5.05729 9.53719C4.15678 9.91708 3.34874 10.4618 2.65528 11.1573C1.96525 11.8459 1.41509 12.6615 1.03518 13.5593C0.661955 14.4382 0.460668 15.3805 0.442212 16.3352C0.441675 16.3566 0.445438 16.378 0.453279 16.3979C0.461119 16.4179 0.472879 16.4361 0.487865 16.4515C0.502851 16.4668 0.520759 16.4791 0.540536 16.4874C0.560312 16.4957 0.581556 16.5 0.603016 16.5H1.80905C1.89749 16.5 1.96784 16.4296 1.96985 16.3432C2.01005 14.7915 2.63317 13.3382 3.73467 12.2367C4.87437 11.097 6.38794 10.4698 8 10.4698C9.61206 10.4698 11.1256 11.097 12.2653 12.2367C13.3668 13.3382 13.99 14.7915 14.0302 16.3432C14.0322 16.4317 14.1025 16.5 14.191 16.5H15.397C15.4184 16.5 15.4397 16.4957 15.4595 16.4874C15.4792 16.4791 15.4972 16.4668 15.5121 16.4515C15.5271 16.4361 15.5389 16.4179 15.5467 16.3979C15.5546 16.378 15.5583 16.3566 15.5578 16.3352C15.5377 15.3744 15.3387 14.4397 14.9648 13.5573V13.5573ZM8 8.94221C7.07739 8.94221 6.20905 8.58241 5.55578 7.92915C4.90251 7.27588 4.54271 6.40754 4.54271 5.48492C4.54271 4.56231 4.90251 3.69397 5.55578 3.0407C6.20905 2.38744 7.07739 2.02764 8 2.02764C8.92261 2.02764 9.79095 2.38744 10.4442 3.0407C11.0975 3.69397 11.4573 4.56231 11.4573 5.48492C11.4573 6.40754 11.0975 7.27588 10.4442 7.92915C9.79095 8.58241 8.92261 8.94221 8 8.94221Z" fill="#7E7E7E" fill-opacity="0.7"/>
</svg>
