<svg width="33" height="32" viewBox="0 0 33 32" fill="none" xmlns="http://www.w3.org/2000/svg">
<path d="M7.25856 19.338L6.14469 23.4963L2.0735 23.5824C0.856812 21.3257 0.166687 18.7438 0.166687 16C0.166687 13.3468 0.811937 10.8448 1.95569 8.64175H1.95656L5.58106 9.30625L7.16881 12.909C6.8365 13.8778 6.65537 14.9178 6.65537 16C6.6555 17.1745 6.86825 18.2998 7.25856 19.338Z" fill="#FBBB00"/>
<path d="M31.8871 13.011C32.0709 13.9789 32.1667 14.9784 32.1667 16C32.1667 17.1455 32.0462 18.2629 31.8168 19.3407C31.0379 23.0084 29.0027 26.211 26.1834 28.4774L26.1826 28.4765L21.6173 28.2436L20.9712 24.2101C22.8419 23.113 24.3039 21.3961 25.0741 19.3407H16.5184V13.011H25.1989H31.8871V13.011Z" fill="#518EF8"/>
<path d="M26.1825 28.4765L26.1834 28.4774C23.4414 30.6813 19.9583 32 16.1667 32C10.0735 32 4.77592 28.5943 2.07349 23.5824L7.25855 19.3381C8.60974 22.9442 12.0884 25.5113 16.1667 25.5113C17.9196 25.5113 19.5619 25.0374 20.971 24.2101L26.1825 28.4765Z" fill="#28B446"/>
<path d="M26.3794 3.6835L21.1961 7.927C19.7377 7.01538 18.0137 6.48875 16.1667 6.48875C11.9961 6.48875 8.45238 9.17356 7.16888 12.909L1.95656 8.64175H1.95569C4.61856 3.50769 9.98294 0 16.1667 0C20.0489 0 23.6084 1.38287 26.3794 3.6835Z" fill="#F14336"/>
</svg>
